<?xml version="1.0" standalone="no"?>
<!DOCTYPE svg PUBLIC "-//W3C//DTD SVG 20010904//EN"
 "http://www.w3.org/TR/2001/REC-SVG-20010904/DTD/svg10.dtd">
<svg version="1.0" xmlns="http://www.w3.org/2000/svg"
 width="512.000000pt" height="512.000000pt" viewBox="0 0 512.000000 512.000000"
 preserveAspectRatio="xMidYMid meet">

<g transform="translate(0.000000,512.000000) scale(0.100000,-0.100000)"
fill="#000000" stroke="none">
<path d="M2195 4633 c-11 -3 -33 -15 -50 -26 -71 -50 -2075 -1700 -2103 -1732
-60 -68 -52 -152 20 -221 36 -34 1930 -1606 2065 -1713 81 -65 187 -50 241 32
l27 41 3 482 3 483 122 -5 c489 -20 832 -82 1167 -211 601 -232 1017 -703
1115 -1262 21 -121 58 -161 148 -161 54 0 103 31 128 80 35 69 50 413 29 690
-54 721 -297 1308 -712 1721 -390 387 -913 625 -1568 713 -98 13 -358 36 -412
36 -17 0 -18 28 -18 443 0 243 -5 460 -10 481 -10 44 -34 81 -71 108 -26 19
-91 30 -124 21z m-89 -1300 c45 -59 69 -66 286 -74 261 -10 369 -22 590 -65
335 -64 651 -188 894 -350 474 -314 790 -824 904 -1456 10 -54 16 -98 14 -98
-2 0 -29 33 -61 73 -228 287 -534 518 -875 661 -384 161 -809 243 -1380 266
-255 11 -294 7 -342 -31 -56 -44 -56 -45 -56 -469 0 -216 -4 -390 -8 -388 -21
8 -1651 1364 -1651 1373 0 6 372 315 827 688 l827 679 5 -390 c5 -377 6 -392
26 -419z"/>
</g>
</svg>
